<?xml version="1.0" standalone="no"?><!DOCTYPE svg PUBLIC "-//W3C//DTD SVG 1.1//EN" "http://www.w3.org/Graphics/SVG/1.1/DTD/svg11.dtd"><svg class="icon" width="200px" height="200.00px" viewBox="0 0 1024 1024" version="1.1" xmlns="http://www.w3.org/2000/svg"><path d="M887.590994 320.941926c-34.394165 0-62.284851 28.292136-62.284851 63.288475V631.472958c0 34.895976 27.890687 63.288474 62.284851 63.288475s62.284851-28.292136 62.284851-63.288475V384.220364c0-34.986302-27.770252-63.278438-62.284851-63.278438z m-751.252057 0C101.944773 320.941926 74.04405 349.234062 74.04405 384.220364V631.472958c0 34.895976 27.900723 63.338656 62.294887 63.338656s62.284851-28.292136 62.284852-63.288475V384.220364c0-34.986302-27.890687-63.278438-62.284852-63.278438z m99.780212 1.896848v451.710697a48.645613 48.645613 0 0 0 48.595432 48.595432h55.490322v137.566623c0 34.895976 27.890687 63.288474 62.284852 63.288474s62.284851-28.292136 62.284851-63.288474V823.034505h96.980103v137.576658c0 34.895976 27.890687 63.288474 62.284851 63.288475s62.284851-28.292136 62.284852-63.288475V823.034505h55.490323a48.645613 48.645613 0 0 0 48.595431-48.595432v-451.630408zM643.339233 88.783824l51.18478-74.268112c3.010869-4.395869 2.298297-10.196811-1.696123-13.0471s-9.694999-1.395036-12.695833 3.010869l-53.192026 77.278981a318.248894 318.248894 0 0 0-229.950131 0l-53.192026-77.188655c-3.010869-4.395869-8.701413-5.800942-12.695832-3.010869s-4.696956 8.500688-1.696123 13.047101l51.184779 74.268111c-81.383799 37.896809-138.499992 109.776298-145.776259 193.759481h554.291017c-7.29634-84.073509-64.382424-155.963034-145.766223-193.849807zM395.083016 205.956824a30.690795 30.690795 0 1 1 30.690795-30.690795 30.700832 30.700832 0 0 1-30.690795 30.690795z m237.657957 0a30.690795 30.690795 0 1 1 30.690795-30.690795 30.700832 30.700832 0 0 1-30.690795 30.690795z"  /></svg>